<svg width="629" height="143" viewBox="0 0 629 143" fill="none" xmlns="http://www.w3.org/2000/svg">
<path fill-rule="evenodd" clip-rule="evenodd" d="M0 93.0013L49.812 43L66 59.2495L32.3722 93.0051L65.9938 126.754L49.8097 143L0 93.0013Z" fill="#E81123"/>
<path d="M206.899 13.7984C206.899 21.4189 200.723 27.5967 193.104 27.5967C185.486 27.5967 179.31 21.4189 179.31 13.7984C179.31 6.17781 185.486 0 193.104 0C200.723 0 206.899 6.17781 206.899 13.7984Z" fill="#221F20"/>
<path d="M357.398 140.976V86.5527C357.398 74.7845 347.844 65.2283 336.078 65.2283C324.311 65.2283 314.759 74.7845 314.759 86.5527V140.976H292.186V86.5527C292.171 74.795 282.624 65.2534 270.867 65.2534C259.099 65.2534 249.548 74.8076 249.548 86.5779V140.976H226.964L226.974 44.6899H249.548V50.2009C255.358 45.1748 263.131 42.6745 270.867 42.6745C283.794 42.6745 295.426 48.2775 303.46 57.1854C311.496 48.2628 323.136 42.6493 336.078 42.6493C360.304 42.6493 379.971 62.3221 379.971 86.5527V140.976H357.398Z" fill="#221F20"/>
<path d="M204.391 44.656H181.818V140.976H204.391V44.656Z" fill="#221F20"/>
<path fill-rule="evenodd" clip-rule="evenodd" d="M472.77 132.798C466.859 138.528 455.37 143 445.182 143C417.495 143 395.02 120.517 395.02 92.8246C395.02 65.132 417.495 42.6493 445.182 42.6493C455.37 42.6493 465.355 47.2007 472.77 52.931V44.65H495.347V140.97H472.77V132.798ZM473.774 92.8246C473.774 77.5944 461.414 65.2283 446.185 65.2283C430.957 65.2283 418.597 77.5944 418.597 92.8246C418.597 108.055 430.957 120.421 446.185 120.421C461.414 120.421 473.774 108.055 473.774 92.8246Z" fill="#221F20"/>
<path d="M540.493 44.656H517.92V140.976H540.493V44.656Z" fill="#221F20"/>
<path d="M529.206 27.5967C536.823 27.5967 543 21.4189 543 13.7984C543 6.17781 536.823 0 529.206 0C521.585 0 515.412 6.17781 515.412 13.7984C515.412 21.4189 521.585 27.5967 529.206 27.5967Z" fill="#221F20"/>
<path d="M84 125.338C94.2708 137.615 111.516 143 124.611 143C136.04 143 145.086 140.257 151.753 134.771C158.418 129.286 161.752 121.86 161.752 112.493C161.752 102.592 157.419 94.2653 148.589 89.3126C144.042 86.7616 132.449 83.2586 125.821 81.2554C124.996 81.006 124.247 80.78 123.599 80.582C123.483 80.5463 123.358 80.5085 123.226 80.4687C119.54 79.3499 110.178 76.5095 110.436 70.5469C110.657 65.477 115.945 62.7196 124.517 62.7196C130.81 62.7196 140.538 64.6598 146.965 73.156L161.251 59.1068C155.129 51.1122 144.755 42.6493 125.129 42.6493C117.646 42.6493 108.239 44.0878 102.784 47.7674C94.2876 53.4999 89.0077 60.6789 89.0077 72.3531C89.0077 80.1136 93.8046 89.116 102.171 93.9287C107.547 97.0206 120.192 101.44 128.693 103.863C135.086 105.686 140.586 108.394 140.324 114.3C140.065 120.174 132.601 123.756 125.019 123.432C110.772 122.821 101.687 115.17 98.2859 111.289L84 125.338Z" fill="#221F20"/>
<path fill-rule="evenodd" clip-rule="evenodd" d="M629 93.0013L579.188 43L563 59.2495L596.628 93.0051L563.006 126.754L579.19 143L629 93.0013Z" fill="#E81123"/>
</svg>
